<svg id="Layer_1" data-name="Layer 1" xmlns="http://www.w3.org/2000/svg" xmlns:xlink="http://www.w3.org/1999/xlink" viewBox="0 0 391.43 465.16"><defs><style>.cls-1{fill:url(#linear-gradient);}.cls-2,.cls-3,.cls-4{fill-rule:evenodd;}.cls-2{fill:url(#linear-gradient-2);}.cls-3{fill:url(#linear-gradient-3);}.cls-4{fill:url(#linear-gradient-4);}</style><linearGradient id="linear-gradient" x1="429.01" y1="431.37" x2="674.1" y2="431.37" gradientUnits="userSpaceOnUse"><stop offset="0" stop-color="lime"/><stop offset="1" stop-color="#195d17"/></linearGradient><linearGradient id="linear-gradient-2" x1="521.97" y1="285.96" x2="587.44" y2="410.04" xlink:href="#linear-gradient"/><linearGradient id="linear-gradient-3" x1="402.32" y1="354.5" x2="484.89" y2="510.98" gradientUnits="userSpaceOnUse"><stop offset="0.31" stop-color="#61acff"/><stop offset="1" stop-color="#0a43c5"/></linearGradient><linearGradient id="linear-gradient-4" x1="696" y1="626.44" x2="386.17" y2="448.72" xlink:href="#linear-gradient-3"/></defs><path class="cls-1" d="M673.83,567.3l-9,3.94-55.28,24.07L463.25,534.68,429,374.38l34.85-71,40.05-36a.09.09,0,0,1,0,.06c-.61,1.46-13.52,34.34,37.18,67.45,51.86,33.89,75.39,33.89,106.5,85.07S673.83,567.3,673.83,567.3Z" transform="translate(-304.29 -267.42)"/><path class="cls-2" d="M673.83,567.3l-9,3.94-1.39-22.85c15.2-92.27-66.32-95.14-134.09-160.81C462.7,323,502.46,269.33,503.88,267.49c-.61,1.46-13.52,34.34,37.18,67.45,51.86,33.89,75.39,33.89,106.5,85.07S673.83,567.3,673.83,567.3Z" transform="translate(-304.29 -267.42)"/><path class="cls-3" d="M638.62,676.33h0c-76,75-200.49,75-276.58,0h0c-76.09-75-77.92-195.8,0-272.57L500.39,267.42h3.52C358.79,446.19,667.28,628.19,668.78,530.92c.79-51.91-7.15-76.83-53.64-150.3l23.48,23.14c76.13,74.89,76.13,197.6,0,272.57Z" transform="translate(-304.29 -267.42)"/><path class="cls-4" d="M638.62,676.33h0c-76,75-200.49,75-276.58,0h0c-76.09-75-77.92-195.8,0-272.57L500.39,267.42h3.52c-212.52,229.87,74,502.74,152.3,308,20.24-50.52,5.42-121.29-41.07-194.76l23.48,23.14c76.13,74.89,76.13,197.6,0,272.57Z" transform="translate(-304.29 -267.42)"/></svg>